<svg width="15" height="17" viewBox="0 0 15 17" fill="none" xmlns="http://www.w3.org/2000/svg">
<path d="M14.3047 13C14.2525 13.0582 14.1922 13.1089 14.124 13.1484C14.01 13.2146 13.8799 13.2498 13.748 13.25H10.1523L10.0713 13.6494C9.95016 14.2421 9.62781 14.7757 9.15918 15.1582C8.69057 15.5407 8.10392 15.749 7.49902 15.749C6.89412 15.749 6.30748 15.5407 5.83887 15.1582C5.37023 14.7757 5.04886 14.2421 4.92773 13.6494L4.8457 13.25H1.24902C1.11729 13.2498 0.988005 13.2145 0.874023 13.1484C0.8058 13.1089 0.745626 13.0582 0.693359 13H14.3047ZM5.26074 13.917C5.42444 14.3798 5.72717 14.781 6.12793 15.0645C6.47866 15.3125 6.88939 15.46 7.31543 15.4932L7.49902 15.5C7.98997 15.4998 8.46928 15.3479 8.87012 15.0645C9.27087 14.781 9.5736 14.3797 9.7373 13.917L9.97363 13.25H5.02441L5.26074 13.917ZM7.49902 0.5C9.02402 0.5 10.4871 1.10624 11.5654 2.18457C12.6435 3.26286 13.249 4.72522 13.249 6.25C13.249 9.06528 13.9027 11.2737 14.3945 12.1211L14.3955 12.1221C14.4619 12.2359 14.4966 12.3653 14.4971 12.4971C14.4974 12.5757 14.4837 12.6532 14.46 12.7275L14.1816 12.249C13.638 11.3145 12.999 9.01375 12.999 6.25C12.999 4.79131 12.4191 3.39278 11.3877 2.36133C10.3562 1.3299 8.9577 0.75 7.49902 0.75C6.04036 0.750019 4.64178 1.32989 3.61035 2.36133C2.57892 3.39277 1.99902 4.79133 1.99902 6.25C1.99902 9.01592 1.35861 11.3167 0.816406 12.249L0.537109 12.7285C0.513225 12.654 0.499729 12.576 0.5 12.4971C0.500515 12.3653 0.536163 12.2359 0.602539 12.1221V12.1211C1.09428 11.2739 1.74902 9.06639 1.74902 6.25C1.74902 4.72502 2.35528 3.2629 3.43359 2.18457C4.51191 1.10625 5.97405 0.500019 7.49902 0.5Z" fill="#B8B8B8" stroke="#B8B8B8"/>
</svg>
