<svg width="12" height="16" viewBox="0 0 12 16" fill="none" xmlns="http://www.w3.org/2000/svg">
<path d="M1.25 0.5H10C10.1989 0.5 10.3896 0.579074 10.5303 0.719727C10.6709 0.860379 10.75 1.05109 10.75 1.25V15C10.7499 15.022 10.7436 15.0435 10.7324 15.0625C10.7211 15.0817 10.705 15.0976 10.6855 15.1084C10.6661 15.1192 10.6443 15.1245 10.6221 15.124C10.5998 15.1235 10.5775 15.1172 10.5586 15.1055H10.5596L5.88965 12.1875L5.625 12.0225L5.36035 12.1875L0.691406 15.1055C0.672487 15.1173 0.650227 15.1244 0.62793 15.125C0.605823 15.1255 0.583822 15.1201 0.564453 15.1094C0.545051 15.0986 0.528898 15.0825 0.517578 15.0635C0.50629 15.0443 0.500055 15.0222 0.5 15V1.25C0.5 1.05109 0.579074 0.860379 0.719727 0.719727C0.860379 0.579074 1.05109 0.5 1.25 0.5ZM0.75 14.7744L1.51465 14.2969L5.55762 11.7695C5.57743 11.7571 5.60066 11.75 5.62402 11.75C5.64745 11.75 5.67056 11.7571 5.69043 11.7695L9.73535 14.2969L10.5 14.7744V0.75H0.75V14.7744Z" fill="#B8B8B8" stroke="#B8B8B8"/>
</svg>
