<svg width="11" height="14" viewBox="0 0 11 14" fill="none" xmlns="http://www.w3.org/2000/svg">
<path d="M1.12988 5.17383C1.23441 4.93625 1.35342 4.6984 1.48438 4.45898C1.35408 4.69727 1.23488 4.93511 1.12988 5.17383ZM1.12988 5.17383C1.1069 5.22606 1.08616 5.27892 1.06445 5.33105C1.08618 5.27886 1.10693 5.22601 1.12988 5.17383ZM8.1875 9.40137C8.04387 9.67219 7.86089 9.92233 7.6416 10.1416C7.43372 10.3494 7.197 10.523 6.94238 10.6631C7.46507 10.3712 7.90347 9.92882 8.1875 9.40137ZM0.527344 7.41309C0.531225 7.37205 0.537297 7.33116 0.541992 7.29004C0.537295 7.33113 0.531233 7.37202 0.527344 7.41309ZM10.457 7.29004C10.4605 7.31966 10.4648 7.34919 10.4678 7.37891C10.4648 7.34918 10.4604 7.31965 10.457 7.29004ZM0.564453 7.10547C0.568804 7.07512 0.575285 7.04504 0.580078 7.01465C0.575283 7.04503 0.568811 7.0751 0.564453 7.10547ZM10.417 7.00098C10.4207 7.02374 10.4243 7.04651 10.4277 7.06934C10.4243 7.0465 10.4207 7.02374 10.417 7.00098ZM0.611328 6.82422C0.6228 6.76303 0.636152 6.70198 0.649414 6.64062C0.63616 6.70191 0.622822 6.76296 0.611328 6.82422ZM10.3613 6.69727C10.3667 6.72294 10.3719 6.74866 10.377 6.77441C10.3719 6.74864 10.3667 6.72294 10.3613 6.69727ZM0.670898 6.54004C0.68191 6.49252 0.693969 6.44508 0.706055 6.39746C0.693976 6.44504 0.681925 6.49248 0.670898 6.54004ZM0.761719 6.19238C0.771277 6.15889 0.780927 6.12534 0.791016 6.0918C0.780932 6.12531 0.771285 6.15887 0.761719 6.19238ZM0.844727 5.92188C0.859474 5.87675 0.873942 5.83134 0.889648 5.78613C0.873956 5.8313 0.859487 5.87671 0.844727 5.92188ZM0.944336 5.63379C0.961592 5.58722 0.979774 5.54079 0.998047 5.49414C0.979793 5.54075 0.961606 5.58718 0.944336 5.63379ZM2.43848 3L3.94238 4.45898L2.85156 3.40137L2.43848 3ZM1.74609 4.00488C1.77436 3.95888 1.80376 3.91325 1.83301 3.86719C1.8038 3.91321 1.77438 3.95883 1.74609 4.00488ZM1.9707 3.65625C1.99155 3.62495 2.01288 3.59382 2.03418 3.5625C2.01289 3.5938 1.99156 3.62493 1.9707 3.65625ZM6.13965 0.5H6.14062L5.89258 1.18262L5.0918 3.37793L6.13965 0.5Z" fill="#FFD666" stroke="#FFD666"/>
</svg>
