<svg width="11" height="14" viewBox="0 0 11 14" fill="none" xmlns="http://www.w3.org/2000/svg">
<path d="M1.72363 9.4502C1.95673 9.83358 2.2084 10.1946 2.46582 10.5293C3.39634 11.7393 4.43448 12.6518 5.01953 13.127C4.29046 12.5433 3.61484 11.8952 3.00293 11.1885L3.00195 11.1875L2.69922 10.8281C2.32659 10.3703 2.00174 9.90979 1.72363 9.4502ZM1.72363 9.4502C1.68593 9.38789 1.65022 9.32497 1.61426 9.2627C1.65069 9.32548 1.68616 9.38857 1.72363 9.4502ZM9.15625 9.6416C8.82925 10.1579 8.44368 10.675 7.99805 11.1875L7.99707 11.1885C7.34703 11.9405 6.62481 12.6268 5.84277 13.2393C6.39028 12.8057 7.52487 11.8419 8.53418 10.5293C8.7482 10.251 8.95747 9.95393 9.15625 9.6416ZM9.35156 9.31934C9.33179 9.35309 9.31228 9.38714 9.29199 9.4209C9.31225 9.38735 9.33161 9.35322 9.35156 9.31934ZM1.49707 9.05762C1.48516 9.03585 1.47361 9.01395 1.46191 8.99219C1.47369 9.01399 1.48515 9.03594 1.49707 9.05762ZM5.45996 7.49805C5.42674 7.49738 5.39355 7.49647 5.36035 7.49414C5.39347 7.49646 5.42666 7.49738 5.45996 7.49805ZM5.33203 7.49121C5.29684 7.48824 5.26164 7.48531 5.22656 7.48047C5.26155 7.4853 5.29675 7.48823 5.33203 7.49121ZM5.87891 7.46191C5.82126 7.47305 5.76342 7.48226 5.70508 7.48828C5.7636 7.48225 5.82145 7.47301 5.87891 7.46191ZM5.16699 7.4707C5.14798 7.46749 5.12833 7.46568 5.10938 7.46191C5.09753 7.45956 5.08601 7.45569 5.07422 7.45312C5.10498 7.45983 5.13592 7.46545 5.16699 7.4707ZM6.06445 7.41699C6.01312 7.43211 5.96141 7.44513 5.90918 7.45605C5.96156 7.4451 6.01327 7.43207 6.06445 7.41699ZM5.03125 7.44336C5.00071 7.43599 4.9705 7.42771 4.94043 7.41895C4.97054 7.42773 5.00075 7.436 5.03125 7.44336ZM6.26562 7.34766C6.20871 7.37123 6.1503 7.39105 6.0918 7.40918C6.15058 7.39096 6.20883 7.37119 6.26562 7.34766ZM4.86719 7.39648C4.84656 7.3896 4.82603 7.38254 4.80566 7.375C4.82605 7.38255 4.84658 7.38961 4.86719 7.39648ZM4.71875 7.33984C4.70465 7.33386 4.69071 7.32759 4.67676 7.32129C4.69072 7.3276 4.70466 7.33386 4.71875 7.33984ZM4.58691 7.27734C4.57098 7.26916 4.55477 7.26154 4.53906 7.25293C4.55478 7.26155 4.57099 7.26916 4.58691 7.27734ZM6.58301 7.17871C6.54693 7.20199 6.51025 7.22416 6.47266 7.24512C6.51016 7.22421 6.54684 7.20204 6.58301 7.17871ZM4.47559 7.2168C4.45348 7.2036 4.43175 7.18983 4.41016 7.17578C4.43177 7.18984 4.4535 7.20362 4.47559 7.2168ZM6.74023 7.06641C6.70243 7.09634 6.66393 7.1252 6.62402 7.15234C6.66382 7.12527 6.70233 7.09642 6.74023 7.06641ZM4.3291 7.12012C4.31928 7.11302 4.3095 7.10591 4.2998 7.09863C4.30949 7.1059 4.31928 7.11302 4.3291 7.12012ZM4.2168 7.03223C4.20405 7.02155 4.19121 7.01101 4.17871 7C4.19119 7.01099 4.20403 7.02154 4.2168 7.03223ZM4.10742 6.93359C4.10049 6.92686 4.09278 6.92091 4.08594 6.91406C4.08121 6.90934 4.07694 6.90418 4.07227 6.89941C4.08371 6.91109 4.09569 6.9222 4.10742 6.93359ZM7.03418 6.78125C7.00323 6.81831 6.97096 6.85404 6.9375 6.88867C6.97111 6.85388 7.00337 6.81814 7.03418 6.78125ZM4.00195 6.82324C3.99201 6.81198 3.98234 6.80053 3.97266 6.78906C3.98234 6.80054 3.99201 6.81199 4.00195 6.82324ZM7.25488 6.45703C7.2263 6.50944 7.19644 6.56141 7.16309 6.61133C7.1295 6.66158 7.09245 6.70911 7.05469 6.75586C7.13056 6.66194 7.19757 6.56212 7.25488 6.45703ZM3.90234 6.70117C3.89663 6.69357 3.89037 6.68639 3.88477 6.67871C3.89037 6.68639 3.89663 6.69357 3.90234 6.70117ZM3.83594 6.60742C3.82252 6.58727 3.80856 6.56749 3.7959 6.54688C3.80857 6.56751 3.82254 6.58728 3.83594 6.60742ZM3.74512 6.45703C3.73891 6.44564 3.73255 6.43436 3.72656 6.42285C3.73255 6.43436 3.73891 6.44565 3.74512 6.45703ZM7.33594 6.28906C7.31892 6.32866 7.30084 6.36775 7.28125 6.40625C7.30082 6.36778 7.3189 6.32869 7.33594 6.28906ZM3.68262 6.33203C3.67619 6.31799 3.66919 6.30423 3.66309 6.29004C3.66919 6.30424 3.67619 6.318 3.68262 6.33203ZM7.45898 5.89844C7.43451 6.01875 7.39861 6.13621 7.35254 6.25C7.39851 6.13645 7.43446 6.01901 7.45898 5.89844ZM3.63379 6.2168C3.62544 6.19507 3.61696 6.1734 3.60938 6.15137C3.61695 6.17336 3.62543 6.19503 3.63379 6.2168ZM3.58496 6.07422C3.57816 6.05153 3.57143 6.02882 3.56543 6.00586C3.57142 6.02878 3.57815 6.05149 3.58496 6.07422ZM3.55078 5.94531C3.54662 5.92709 3.54174 5.909 3.53809 5.89062C3.53612 5.88072 3.53502 5.87028 3.5332 5.86035C3.53841 5.88879 3.54433 5.91709 3.55078 5.94531ZM7.48633 5.72168C7.48106 5.76886 7.4744 5.81574 7.46582 5.8623C7.4744 5.81578 7.48106 5.7689 7.48633 5.72168ZM3.52246 5.79102C3.51853 5.76433 3.51456 5.7377 3.51172 5.71094C3.51456 5.73773 3.51854 5.76435 3.52246 5.79102ZM7.5 5.5C7.5 5.55757 7.49613 5.61483 7.49121 5.67188C7.49613 5.6149 7.5 5.55764 7.5 5.5ZM3.50684 5.64844C3.50468 5.61945 3.50187 5.59053 3.50098 5.56152C3.50187 5.59056 3.50468 5.61948 3.50684 5.64844ZM3.50098 5.49902C3.50099 5.47491 3.50107 5.45084 3.50195 5.42676C3.50107 5.45086 3.50099 5.47493 3.50098 5.49902ZM3.50781 5.33105C3.50928 5.31378 3.51078 5.29653 3.5127 5.2793C3.51078 5.29654 3.50928 5.31379 3.50781 5.33105ZM7.4834 5.25488C7.48637 5.27892 7.48911 5.30296 7.49121 5.32715C7.48911 5.30297 7.48637 5.27893 7.4834 5.25488ZM3.52344 5.19531C3.52636 5.17638 3.52974 5.15752 3.5332 5.13867C3.52974 5.15754 3.52635 5.17639 3.52344 5.19531ZM7.45703 5.09375C7.45959 5.10607 7.46154 5.11848 7.46387 5.13086C7.46154 5.11849 7.45959 5.10607 7.45703 5.09375ZM3.55078 5.05371C3.5558 5.03178 3.56162 5.01005 3.56738 4.98828C3.56163 5.01002 3.55581 5.03175 3.55078 5.05371ZM3.58691 4.91699C3.59399 4.89377 3.60144 4.87065 3.60938 4.84766C3.60146 4.87061 3.594 4.89373 3.58691 4.91699ZM3.63379 4.78223C3.63989 4.76636 3.64583 4.75011 3.65234 4.73438C3.65586 4.72588 3.65945 4.71742 3.66309 4.70898C3.65269 4.73313 3.64324 4.75767 3.63379 4.78223ZM7.33008 4.69629C7.33777 4.71379 7.34536 4.73131 7.35254 4.74902C7.34536 4.73131 7.33777 4.7138 7.33008 4.69629ZM3.69434 4.64258C3.7049 4.62032 3.7152 4.59798 3.72656 4.57617C3.71519 4.598 3.7049 4.62034 3.69434 4.64258ZM7.24805 4.53027C7.25844 4.54901 7.26854 4.56787 7.27832 4.58691C7.26854 4.56787 7.25845 4.54902 7.24805 4.53027ZM3.76855 4.50098C3.77788 4.48481 3.78613 4.46803 3.7959 4.45215C3.78613 4.46804 3.77787 4.48482 3.76855 4.50098ZM3.83887 4.38867C3.85414 4.36585 3.86858 4.34247 3.88477 4.32031C3.86856 4.3425 3.85412 4.36587 3.83887 4.38867ZM3.92578 4.26855C3.9412 4.24884 3.95651 4.22908 3.97266 4.20996C3.95649 4.2291 3.94119 4.24886 3.92578 4.26855ZM7.0293 4.21289C7.03779 4.22298 7.04641 4.23292 7.05469 4.24316C7.0464 4.23291 7.03778 4.22297 7.0293 4.21289ZM4.0166 4.16016C4.03621 4.13845 4.05561 4.11655 4.07617 4.0957C4.05559 4.11657 4.03619 4.13847 4.0166 4.16016ZM6.91406 4.08594C6.91863 4.0905 6.92224 4.09598 6.92676 4.10059C6.91853 4.0922 6.91071 4.08343 6.90234 4.0752C6.90612 4.07891 6.91032 4.08219 6.91406 4.08594ZM4.11914 4.05469C4.13945 4.03529 4.15953 4.01563 4.18066 3.99707C4.15957 4.01559 4.13949 4.03525 4.11914 4.05469ZM4.22949 3.95703C4.25306 3.93763 4.27629 3.91776 4.30078 3.89941C4.27634 3.91772 4.25311 3.93758 4.22949 3.95703ZM4.3291 3.87891C4.34877 3.8647 4.36844 3.85043 4.38867 3.83691C4.39571 3.83221 4.40306 3.82785 4.41016 3.82324C4.38269 3.8411 4.3557 3.8597 4.3291 3.87891ZM6.58301 3.82031C6.59667 3.82912 6.61057 3.83753 6.62402 3.84668C6.61058 3.83754 6.59668 3.82913 6.58301 3.82031ZM4.48438 3.77832C4.50262 3.76756 4.52052 3.75625 4.53906 3.74609C4.5205 3.75626 4.50261 3.76757 4.48438 3.77832ZM6.4209 3.72559C6.43836 3.73465 6.45546 3.74433 6.47266 3.75391C6.45548 3.74434 6.43838 3.73466 6.4209 3.72559ZM4.58691 3.72168C4.61661 3.70643 4.64639 3.69145 4.67676 3.67773C4.64635 3.69147 4.61658 3.70645 4.58691 3.72168ZM4.71875 3.65918C4.74753 3.64696 4.77637 3.63487 4.80566 3.62402C4.77633 3.63488 4.7475 3.64698 4.71875 3.65918ZM4.87695 3.60059C4.89809 3.59365 4.91908 3.5863 4.94043 3.58008C4.91906 3.58631 4.89807 3.59366 4.87695 3.60059ZM6.06445 3.58203C6.07355 3.58471 6.08274 3.58704 6.0918 3.58984C6.08274 3.58704 6.07354 3.58471 6.06445 3.58203ZM5.03125 3.55566C5.04553 3.55222 5.05986 3.54903 5.07422 3.5459C5.05986 3.54903 5.04552 3.55222 5.03125 3.55566ZM5.87891 3.53711C5.88901 3.53906 5.89912 3.54087 5.90918 3.54297C5.89911 3.54086 5.889 3.53906 5.87891 3.53711ZM5.16699 3.52832C5.18682 3.52497 5.20662 3.52131 5.22656 3.51855C5.20665 3.5213 5.18685 3.52497 5.16699 3.52832ZM5.69141 3.50879C5.69599 3.50923 5.7005 3.51027 5.70508 3.51074C5.7005 3.51027 5.69598 3.50923 5.69141 3.50879ZM5.33203 3.50781C5.34148 3.50702 5.35088 3.50555 5.36035 3.50488C5.35089 3.50555 5.34149 3.50701 5.33203 3.50781ZM5.5 3.5C5.50749 3.5 5.51498 3.50089 5.52246 3.50098C5.50163 3.50074 5.48081 3.50056 5.45996 3.50098C5.4733 3.50071 5.48664 3.5 5.5 3.5ZM6.90723 6.91992C6.86361 6.96315 6.81786 7.00397 6.77051 7.04297C6.8177 7.00411 6.86345 6.9633 6.90723 6.91992Z" fill="#FFD666" stroke="#FFD666"/>
</svg>
