<svg width="17" height="13" viewBox="0 0 17 13" fill="none" xmlns="http://www.w3.org/2000/svg">
<path d="M0.625 0.5H15.625C15.6582 0.5 15.6904 0.512691 15.7139 0.536133C15.7373 0.559574 15.75 0.591847 15.75 0.625V11.25C15.75 11.4489 15.6709 11.6396 15.5303 11.7803C15.3896 11.9209 15.1989 12 15 12H1.25C1.05109 12 0.860379 11.9209 0.719727 11.7803C0.579074 11.6396 0.5 11.4489 0.5 11.25V0.625C0.5 0.591848 0.512691 0.559575 0.536133 0.536133C0.559575 0.512691 0.591848 0.5 0.625 0.5ZM14.6621 1.67773L8.20996 7.59277C8.1869 7.61394 8.1563 7.62598 8.125 7.62598C8.0937 7.62598 8.0631 7.61394 8.04004 7.59277L1.58789 1.67773L0.75 0.90918V11.75H15.5V0.90918L14.6621 1.67773ZM1.89453 1.61816L7.78711 7.02051L8.125 7.33105L8.46289 7.02051L14.3555 1.61816L15.3037 0.75H0.946289L1.89453 1.61816Z" fill="#B8B8B8" stroke="#B8B8B8"/>
</svg>
