<svg width="16" height="16" viewBox="0 0 16 16" fill="none" xmlns="http://www.w3.org/2000/svg">
<path d="M14.4102 0.509766V0.510742C14.593 0.521854 14.766 0.598987 14.8955 0.728516C14.9927 0.825673 15.0602 0.947374 15.0928 1.0791L15.1133 1.21387C15.1679 2.13338 15.0815 4.47104 13.1436 6.40918L12.624 6.92871V11.6953C12.6246 11.7937 12.6058 11.8914 12.5684 11.9824C12.5496 12.0279 12.5262 12.0716 12.499 12.1123L12.4053 12.2266L9.72363 14.9062V14.9072C9.65448 14.9766 9.57196 15.0318 9.48145 15.0693C9.39088 15.1068 9.29334 15.1262 9.19531 15.126H9.19434C9.1806 15.126 9.16701 15.1228 9.15332 15.1221L9.5459 14.7305L12.2275 12.0459L12.374 11.8994V7.17871L11.5205 8.03223L8.43359 11.1201L8.25684 11.2959L8.29199 11.542L8.69727 14.4463L8.77344 14.9971C8.71456 14.9577 8.66105 14.9104 8.61523 14.8555C8.54839 14.7753 8.49915 14.6826 8.4707 14.583L8.44922 14.4814L8.0293 11.4756L8.00684 11.3096L7.8877 11.1904L4.43359 7.7373L4.31543 7.61816L4.14941 7.5957L1.14453 7.17578C1.00668 7.1562 0.876521 7.09888 0.769531 7.00977C0.71484 6.96419 0.667345 6.91101 0.62793 6.85254L1.18066 6.92969L4.08301 7.33496L4.33008 7.36914L7.59375 4.10547L8.44824 3.25195H3.72656L3.58008 3.39844L0.895508 6.08105L0.500977 6.47461C0.497029 6.4032 0.503926 6.33102 0.520508 6.26074C0.552553 6.12519 0.6212 6.0008 0.719727 5.90234L3.39941 3.22168L3.40039 3.2207C3.46986 3.151 3.55258 3.0961 3.64355 3.05859C3.73459 3.02109 3.83221 3.00141 3.93066 3.00195H8.69922L8.84668 2.85352L9.21484 2.48047C11.153 0.543018 13.4914 0.455115 14.4102 0.509766ZM3.44629 9.98926C3.46262 9.98868 3.47883 9.99139 3.49414 9.99707C3.50953 10.0028 3.52411 10.0113 3.53613 10.0225C3.548 10.0335 3.55766 10.0468 3.56445 10.0615C3.57126 10.0764 3.57558 10.093 3.57617 10.1094C3.57674 10.1256 3.57398 10.142 3.56836 10.1572C3.56261 10.1726 3.55319 10.1872 3.54199 10.1992C3.53089 10.2111 3.5177 10.2208 3.50293 10.2275C2.86576 10.5179 1.62105 11.3946 1.40625 13.6758L1.34961 14.2773L1.95117 14.2207C4.22949 14.0061 5.10855 12.7633 5.39844 12.124C5.40522 12.1092 5.41483 12.0951 5.42676 12.084C5.43876 12.0728 5.45338 12.0643 5.46875 12.0586C5.48404 12.0529 5.50028 12.0502 5.5166 12.0508C5.533 12.0514 5.54953 12.0547 5.56445 12.0615C5.5794 12.0683 5.59329 12.0778 5.60449 12.0898C5.6157 12.1019 5.62413 12.1164 5.62988 12.1318C5.63557 12.1471 5.63823 12.1634 5.6377 12.1797C5.63713 12.1959 5.63261 12.2118 5.62598 12.2266V12.2275C5.47588 12.5564 5.14195 13.1204 4.47852 13.6025C3.82007 14.0809 2.8044 14.502 1.24902 14.502C1.21608 14.5019 1.1845 14.489 1.16113 14.4658C1.13769 14.4424 1.12402 14.4101 1.12402 14.377C1.12406 12.8219 1.54515 11.807 2.02344 11.1484C2.50541 10.4849 3.06913 10.1497 3.39844 9.99902C3.41334 9.99223 3.42991 9.98985 3.44629 9.98926ZM14.0508 0.74707C13.245 0.740045 12.4436 0.88287 11.6885 1.16992C10.8262 1.49771 10.044 2.00607 9.39355 2.66016L4.55176 7.50195L4.90527 7.85547L7.77051 10.7217L8.12402 11.0752L12.9648 6.23438L12.9658 6.23535C13.6212 5.58436 14.1296 4.80033 14.457 3.93652C14.7844 3.07269 14.9236 2.14844 14.8643 1.22656L14.8359 0.786133L14.3955 0.759766L14.0508 0.74707Z" fill="#B8B8B8" stroke="#B8B8B8"/>
</svg>
