<svg width="20" height="13" viewBox="0 0 20 13" fill="none" xmlns="http://www.w3.org/2000/svg">
<path d="M6.39355 0.5C7.29229 0.500083 8.16699 0.789559 8.88867 1.3252C9.61051 1.86102 10.1411 2.61511 10.4014 3.47559C10.6615 4.336 10.6379 5.25756 10.334 6.10352C10.0301 6.94933 9.46196 7.67474 8.71387 8.17285L7.89453 8.71875L8.81836 9.05859C10.23 9.57897 11.436 10.5411 12.2568 11.8018V11.8027C12.2744 11.8305 12.2804 11.8644 12.2734 11.8965C12.2664 11.9283 12.247 11.9558 12.2197 11.9736C12.1923 11.9915 12.159 11.9986 12.127 11.9922C12.1109 11.9889 12.0954 11.9826 12.082 11.9736L12.0479 11.9395C11.4353 10.9997 10.5983 10.2274 9.6123 9.69238C8.62415 9.15621 7.5178 8.87506 6.39355 8.875C5.26918 8.875 4.1621 9.15614 3.17383 9.69238C2.18577 10.2285 1.34721 11.0029 0.734375 11.9453L0.730469 11.9512C0.721623 11.9651 0.709827 11.9768 0.696289 11.9863C0.682735 11.9958 0.66753 12.0033 0.651367 12.0068C0.635348 12.0103 0.618669 12.0107 0.602539 12.0078C0.586265 12.0048 0.570514 11.9983 0.556641 11.9893C0.542856 11.9803 0.530766 11.9687 0.521484 11.9551C0.512178 11.9414 0.506226 11.9254 0.50293 11.9092C0.499659 11.8931 0.498801 11.8765 0.501953 11.8604C0.505179 11.8441 0.512236 11.8282 0.521484 11.8145L0.525391 11.8076C1.34641 10.5439 2.55472 9.57976 3.96875 9.05859L4.8916 8.71875L4.07227 8.17285C3.32422 7.67473 2.75604 6.9493 2.45215 6.10352C2.14826 5.25758 2.12463 4.33598 2.38477 3.47559C2.645 2.61511 3.17563 1.86102 3.89746 1.3252C4.61928 0.789421 5.49462 0.5 6.39355 0.5ZM11.7129 0.800781C12.6741 0.417478 13.7431 0.403444 14.7139 0.761719C15.6848 1.12019 16.4891 1.82606 16.9707 2.74219C17.4521 3.65813 17.5774 4.71986 17.3223 5.72266C17.067 6.72567 16.4488 7.59935 15.5879 8.17383L14.7715 8.71875L15.6934 9.05859C17.1072 9.57978 18.3148 10.544 19.1357 11.8076V11.8086C19.1538 11.8363 19.1601 11.87 19.1533 11.9023C19.1465 11.9348 19.1274 11.9633 19.0996 11.9814C19.0719 11.9995 19.0382 12.0058 19.0059 11.999C18.9896 11.9956 18.9744 11.9887 18.9609 11.9795L18.9268 11.9453C18.3146 11.0024 17.4765 10.2273 16.4883 9.69141C15.5 9.15547 14.3928 8.87562 13.2686 8.87695L13.2207 8.86719C13.2056 8.86096 13.1915 8.85163 13.1797 8.83984C13.1564 8.81644 13.1436 8.78496 13.1436 8.75195C13.1436 8.7188 13.1562 8.68653 13.1797 8.66309C13.1914 8.65139 13.2057 8.64291 13.2207 8.63672L13.2686 8.62695C13.8484 8.62641 14.4209 8.49748 14.9453 8.25C15.4696 8.00256 15.9328 7.64248 16.3018 7.19531C16.6707 6.74811 16.9367 6.22485 17.0801 5.66309C17.2234 5.10135 17.2414 4.51459 17.1318 3.94531C17.0222 3.37601 16.7879 2.83755 16.4463 2.36914C16.1046 1.90067 15.663 1.51364 15.1543 1.23535C14.6456 0.957096 14.0817 0.793877 13.5029 0.758789C12.9243 0.723751 12.3451 0.817509 11.8066 1.03223L11.7998 1.03418L11.793 1.03711C11.7778 1.04366 11.7616 1.04765 11.7451 1.04785C11.7285 1.04799 11.7117 1.0444 11.6963 1.03809C11.6808 1.03172 11.666 1.02261 11.6543 1.01074C11.6426 0.998907 11.6341 0.984183 11.6279 0.96875C11.6218 0.953302 11.6178 0.936536 11.6182 0.919922C11.6185 0.903368 11.6231 0.887202 11.6299 0.87207C11.6367 0.856834 11.646 0.842458 11.6582 0.831055C11.6703 0.819804 11.6847 0.811402 11.7002 0.805664L11.7129 0.800781ZM7.16113 0.827148C6.39751 0.675311 5.60605 0.753865 4.88672 1.05176C4.16723 1.34978 3.5518 1.85443 3.11914 2.50195C2.68654 3.14944 2.45605 3.91074 2.45605 4.68945V4.69043C2.45736 5.73404 2.8724 6.7347 3.61035 7.47266C4.34839 8.21058 5.34891 8.62576 6.39258 8.62695H6.39355C7.17218 8.62688 7.93364 8.39548 8.58105 7.96289C9.22837 7.53025 9.73329 6.91562 10.0312 6.19629C10.3293 5.47682 10.4068 4.68468 10.2549 3.9209C10.1029 3.15733 9.7282 2.45583 9.17773 1.90527C8.62707 1.3546 7.92493 0.979078 7.16113 0.827148Z" fill="#B8B8B8" stroke="#B8B8B8"/>
</svg>
