<svg width="11" height="11" viewBox="0 0 11 11" fill="none" xmlns="http://www.w3.org/2000/svg">
<path d="M9.83719 4.06969C9.66047 3.885 9.47766 3.69469 9.40875 3.52734C9.345 3.37406 9.34125 3.12 9.3375 2.87391C9.33047 2.41641 9.32297 1.89797 8.9625 1.5375C8.60203 1.17703 8.08359 1.16953 7.62609 1.1625C7.38 1.15875 7.12594 1.155 6.97266 1.09125C6.80578 1.02234 6.615 0.839531 6.43031 0.662812C6.10687 0.352031 5.73938 0 5.25 0C4.76062 0 4.39359 0.352031 4.06969 0.662812C3.885 0.839531 3.69469 1.02234 3.52734 1.09125C3.375 1.155 3.12 1.15875 2.87391 1.1625C2.41641 1.16953 1.89797 1.17703 1.5375 1.5375C1.17703 1.89797 1.17188 2.41641 1.1625 2.87391C1.15875 3.12 1.155 3.37406 1.09125 3.52734C1.02234 3.69422 0.839531 3.885 0.662812 4.06969C0.352031 4.39313 0 4.76062 0 5.25C0 5.73938 0.352031 6.10641 0.662812 6.43031C0.839531 6.615 1.02234 6.80531 1.09125 6.97266C1.155 7.12594 1.15875 7.38 1.1625 7.62609C1.16953 8.08359 1.17703 8.60203 1.5375 8.9625C1.89797 9.32297 2.41641 9.33047 2.87391 9.3375C3.12 9.34125 3.37406 9.345 3.52734 9.40875C3.69422 9.47766 3.885 9.66047 4.06969 9.83719C4.39313 10.148 4.76062 10.5 5.25 10.5C5.73938 10.5 6.10641 10.148 6.43031 9.83719C6.615 9.66047 6.80531 9.47766 6.97266 9.40875C7.12594 9.345 7.38 9.34125 7.62609 9.3375C8.08359 9.33047 8.60203 9.32297 8.9625 8.9625C9.32297 8.60203 9.33047 8.08359 9.3375 7.62609C9.34125 7.38 9.345 7.12594 9.40875 6.97266C9.47766 6.80578 9.66047 6.615 9.83719 6.43031C10.148 6.10687 10.5 5.73938 10.5 5.25C10.5 4.76062 10.148 4.39359 9.83719 4.06969ZM7.39031 4.39031L4.76531 7.01531C4.73049 7.05018 4.68913 7.07784 4.6436 7.09671C4.59808 7.11558 4.54928 7.12529 4.5 7.12529C4.45072 7.12529 4.40192 7.11558 4.3564 7.09671C4.31087 7.07784 4.26951 7.05018 4.23469 7.01531L3.10969 5.89031C3.07485 5.85547 3.04721 5.81411 3.02835 5.76859C3.0095 5.72306 2.99979 5.67427 2.99979 5.625C2.99979 5.57573 3.0095 5.52694 3.02835 5.48141C3.04721 5.43589 3.07485 5.39453 3.10969 5.35969C3.18005 5.28932 3.27549 5.24979 3.375 5.24979C3.42427 5.24979 3.47306 5.2595 3.51859 5.27835C3.56411 5.29721 3.60547 5.32485 3.64031 5.35969L4.5 6.21984L6.85969 3.85969C6.89453 3.82485 6.93589 3.79721 6.98141 3.77835C7.02694 3.7595 7.07573 3.74979 7.125 3.74979C7.17427 3.74979 7.22306 3.7595 7.26859 3.77835C7.31411 3.79721 7.35547 3.82485 7.39031 3.85969C7.42515 3.89453 7.45279 3.93589 7.47165 3.98141C7.4905 4.02694 7.50021 4.07573 7.50021 4.125C7.50021 4.17427 7.4905 4.22306 7.47165 4.26859C7.45279 4.31411 7.42515 4.35547 7.39031 4.39031Z" fill="#4F8CFF"/>
</svg>
